<?xml version="1.0" ?><svg width="24px" height="24px" viewBox="0 0 24 24" version="1.1" xmlns="http://www.w3.org/2000/svg" xmlns:xlink="http://www.w3.org/1999/xlink"><title/><g fill="none" fill-rule="evenodd" id="页面-1" stroke="none" stroke-width="1"><g id="导航图标" stroke="#212121" stroke-width="1.5" transform="translate(-177.000000, -272.000000)"><g id="国际" transform="translate(177.000000, 272.000000)"><g id="编组" transform="translate(2.000000, 3.000000)"><line id="路径" stroke-linecap="round" stroke-linejoin="round" x1="0" x2="20" y1="18.5" y2="18.5"/><path d="M0.5,9 C0.5,9 5,8.5 10,8.5 C15,8.5 19.5,9 19.5,9" id="路径"/><path d="M1,6 C1,6 5.5263,4 10,4 C14.4737,4 19,6 19,6" id="路径"/><path d="M0.5,12 C0.5,12 5,13 10,13 C15,13 19.5,12 19.5,12" id="路径"/><path d="M10,0 C4.47715,0 0,4.47715 0,10 C0,13.90425 1.73742,16.8532 5,18.5 L15,18.5 C18.2626,16.8532 20,13.90425 20,10 C20,4.47715 15.52285,0 10,0 Z" id="路径"/><path d="M10,0 C8.067,0 6.5,4.47715 6.5,10 C6.5,13.58865 7.00625,16.7358 8,18.5 L12,18.5 C12.99375,16.7358 13.5,13.58865 13.5,10 C13.5,4.47715 11.933,0 10,0 Z" id="路径"/></g></g></g></g></svg>